<svg width="33" height="9" viewBox="0 0 33 9" fill="none" xmlns="http://www.w3.org/2000/svg">
<path d="M2.34 8.1C1.80667 8.1 1.40333 7.95 1.13 7.65C0.856667 7.34333 0.72 6.90667 0.72 6.34V5.94H1.76V6.42C1.76 6.87333 1.95 7.1 2.33 7.1C2.51667 7.1 2.65667 7.04667 2.75 6.94C2.85 6.82667 2.9 6.64667 2.9 6.4C2.9 6.10667 2.83333 5.85 2.7 5.63C2.56667 5.40333 2.32 5.13333 1.96 4.82C1.50667 4.42 1.19 4.06 1.01 3.74C0.83 3.41333 0.74 3.04667 0.74 2.64C0.74 2.08667 0.88 1.66 1.16 1.36C1.44 1.05333 1.84667 0.9 2.38 0.9C2.90667 0.9 3.30333 1.05333 3.57 1.36C3.84333 1.66 3.98 2.09333 3.98 2.66V2.95H2.94V2.59C2.94 2.35 2.89333 2.17667 2.8 2.07C2.70667 1.95667 2.57 1.9 2.39 1.9C2.02333 1.9 1.84 2.12333 1.84 2.57C1.84 2.82333 1.90667 3.06 2.04 3.28C2.18 3.5 2.43 3.76667 2.79 4.08C3.25 4.48 3.56667 4.84333 3.74 5.17C3.91333 5.49667 4 5.88 4 6.32C4 6.89333 3.85667 7.33333 3.57 7.64C3.29 7.94667 2.88 8.1 2.34 8.1ZM4.8307 1H5.9307V3.85H7.1107V1H8.2107V8H7.1107V4.85H5.9307V8H4.8307V1ZM10.8199 8.1C10.2799 8.1 9.86659 7.94667 9.57992 7.64C9.29325 7.33333 9.14992 6.9 9.14992 6.34V2.66C9.14992 2.1 9.29325 1.66667 9.57992 1.36C9.86659 1.05333 10.2799 0.9 10.8199 0.9C11.3599 0.9 11.7733 1.05333 12.0599 1.36C12.3466 1.66667 12.4899 2.1 12.4899 2.66V6.34C12.4899 6.9 12.3466 7.33333 12.0599 7.64C11.7733 7.94667 11.3599 8.1 10.8199 8.1ZM10.8199 7.1C11.1999 7.1 11.3899 6.87 11.3899 6.41V2.59C11.3899 2.13 11.1999 1.9 10.8199 1.9C10.4399 1.9 10.2499 2.13 10.2499 2.59V6.41C10.2499 6.87 10.4399 7.1 10.8199 7.1ZM13.4338 1H15.0538C15.6005 1 16.0105 1.14667 16.2838 1.44C16.5572 1.73333 16.6938 2.16333 16.6938 2.73V3.42C16.6938 3.98667 16.5572 4.41667 16.2838 4.71C16.0105 5.00333 15.6005 5.15 15.0538 5.15H14.5338V8H13.4338V1ZM15.0538 4.15C15.2338 4.15 15.3672 4.1 15.4538 4C15.5472 3.9 15.5938 3.73 15.5938 3.49V2.66C15.5938 2.42 15.5472 2.25 15.4538 2.15C15.3672 2.05 15.2338 2 15.0538 2H14.5338V4.15H15.0538ZM17.4912 1H18.5912V3.85H19.7712V1H20.8712V8H19.7712V4.85H18.5912V8H17.4912V1ZM21.8905 1H24.8905V2H22.9905V3.85H24.5005V4.85H22.9905V7H24.8905V8H21.8905V1ZM25.7233 1H27.3533C27.9199 1 28.3333 1.13333 28.5933 1.4C28.8533 1.66 28.9833 2.06333 28.9833 2.61V3.04C28.9833 3.76667 28.7433 4.22667 28.2633 4.42V4.44C28.5299 4.52 28.7166 4.68333 28.8233 4.93C28.9366 5.17667 28.9933 5.50667 28.9933 5.92V7.15C28.9933 7.35 28.9999 7.51333 29.0133 7.64C29.0266 7.76 29.0599 7.88 29.1133 8H27.9933C27.9533 7.88667 27.9266 7.78 27.9133 7.68C27.8999 7.58 27.8933 7.4 27.8933 7.14V5.86C27.8933 5.54 27.8399 5.31667 27.7333 5.19C27.6333 5.06333 27.4566 5 27.2033 5H26.8233V8H25.7233V1ZM27.2233 4C27.4433 4 27.6066 3.94333 27.7133 3.83C27.8266 3.71667 27.8833 3.52667 27.8833 3.26V2.72C27.8833 2.46667 27.8366 2.28333 27.7433 2.17C27.6566 2.05667 27.5166 2 27.3233 2H26.8233V4H27.2233ZM29.9565 1H32.9565V2H31.0565V3.85H32.5665V4.85H31.0565V7H32.9565V8H29.9565V1Z" fill="#262626"/>
</svg>
